<?xml version="1.0" encoding="UTF-8" standalone="no"?>
<svg
   xmlns:dc="http://purl.org/dc/elements/1.1/"
   xmlns:cc="http://creativecommons.org/ns#"
   xmlns:rdf="http://www.w3.org/1999/02/22-rdf-syntax-ns#"
   xmlns:svg="http://www.w3.org/2000/svg"
   xmlns="http://www.w3.org/2000/svg"
   xmlns:sodipodi="http://sodipodi.sourceforge.net/DTD/sodipodi-0.dtd"
   xmlns:inkscape="http://www.inkscape.org/namespaces/inkscape"
   version="1.1"
   id="Layer_1"
   x="0px"
   y="0px"
   width="63.377998"
   height="26.511"
   viewBox="-1.978 0 63.377998 26.511"
   enable-background="new -1.978 0 288 29"
   xml:space="preserve"
   sodipodi:docname="trendmicrologo.svg"
   inkscape:version="1.0.1 (3bc2e813f5, 2020-09-07)"><metadata
   id="metadata98"><rdf:RDF><cc:Work
       rdf:about=""><dc:format>image/svg+xml</dc:format><dc:type
         rdf:resource="http://purl.org/dc/dcmitype/StillImage" /><dc:title>product_logo</dc:title></cc:Work></rdf:RDF></metadata><defs
   id="defs96" /><sodipodi:namedview
   pagecolor="#ffffff"
   bordercolor="#666666"
   borderopacity="1"
   objecttolerance="10"
   gridtolerance="10"
   guidetolerance="10"
   inkscape:pageopacity="0"
   inkscape:pageshadow="2"
   inkscape:window-width="1899"
   inkscape:window-height="805"
   id="namedview94"
   showgrid="false"
   inkscape:zoom="3.6180556"
   inkscape:cx="140.699"
   inkscape:cy="13.411"
   inkscape:window-x="993"
   inkscape:window-y="1952"
   inkscape:window-maximized="0"
   inkscape:current-layer="Layer_1"
   inkscape:document-rotation="0"
   fit-margin-top="2"
   fit-margin-left="2"
   fit-margin-right="2"
   fit-margin-bottom="2"
   lock-margins="true" />
<title
   id="title2">product_logo</title>
<desc
   id="desc4">Created with Sketch.</desc>
<g
   id="Dashboard"
   transform="translate(-3.269,-1.089)">
	<g
   id="header"
   transform="translate(-11,-7)">
		<g
   transform="translate(-2)"
   id="g43">
			<g
   id="nav"
   transform="translate(13,5)">
				<g
   id="product_logo">
					<g
   id="Layer_1_1_"
   transform="translate(0,2)">
						
						<g
   id="Group">
							<g
   id="Shape_1_"
   transform="translate(30,8)">
								<path
   d="M -1.53,2.2 H 3.48 V 3.227 H 1.639 v 5.16 H 0.312 V 3.227 H -1.53 Z"
   id="path7" />
								<path
   d="m 6.086,3.227 h 1.638 c 0.581,0.009 0.924,0.239 0.924,0.783 0,0.545 -0.343,0.836 -0.923,0.845 H 6.086 Z m 0,2.705 h 1.402 c 0,0 0.87,1.904 0.98,2.457 h 1.635 L 8.848,5.843 C 9.733,5.616 9.961,4.562 9.961,3.76 9.961,2.504 8.562,2.162 7.386,2.202 H 4.76 v 6.186 h 1.328 z"
   id="path9" />
								<path
   d="m 11.855,2.2 h 4.439 v 1.027 h -3.111 v 1.457 h 2.862 V 5.71 h -2.862 v 1.649 h 3.203 v 1.029 h -4.531 z"
   id="path11" />
								<path
   d="M 21.721,8.387 19.45,4.273 19.435,4.29 V 8.387 H 18.191 V 2.201 h 1.647 l 2.258,4.042 0.016,-0.018 V 2.2 h 1.243 v 6.187 z"
   id="path13" />
								<path
   d="m 26.61,3.276 h 0.686 c 1.577,-0.018 1.807,1.032 1.807,2.018 0,0.986 -0.23,2.083 -1.807,2.065 H 26.61 Z m -1.327,5.111 h 2.106 c 1.929,0.018 3.127,-0.941 3.127,-3.093 0,-2.151 -1.198,-3.111 -3.127,-3.093 h -2.106 z"
   id="path15" />
								<path
   d="M 2.618,13.447 H 1.976 V 10.74 L 1.299,13.447 H 0.633 L -0.043,10.74 -0.054,13.447 H -0.696 V 10.011 H 0.34 l 0.619,2.34 0.619,-2.34 h 1.04 z"
   id="path17" />
								<path
   d="M 7.849,13.447 H 7.157 v -3.436 h 0.692 z"
   id="path19" />
								<path
   d="m 21.958,11.289 c -0.042,0.094 -0.114,0.158 -0.221,0.191 -0.053,0.02 -0.119,0.031 -0.196,0.033 -0.081,0.006 -0.195,0.01 -0.345,0.01 H 21.115 20.601 V 10.65 h 0.543 c 0.248,0 0.408,0.006 0.479,0.014 0.072,0.006 0.14,0.025 0.2,0.066 0.064,0.037 0.109,0.086 0.135,0.143 0.03,0.059 0.043,0.129 0.043,0.207 0,0.08 -0.013,0.149 -0.043,0.209 z m 0.063,0.789 c 0,0 0.157,-0.039 0.213,-0.064 0.168,-0.068 0.297,-0.189 0.385,-0.338 0.093,-0.154 0.117,-0.418 0.117,-0.611 0,-0.182 -0.066,-0.377 -0.155,-0.535 C 22.477,10.35 22.336,10.229 22.153,10.161 22.067,10.13 21.987,10.114 21.915,10.104 21.782,10.086 21.6,10.075 21.368,10.075 H 19.91 v 3.434 h 0.69 v -1.352 l 0.66,-0.008 0.733,1.359 h 0.83 z"
   id="path21" />
								<path
   d="m 28.708,12.693 c -0.163,0.146 -0.367,0.221 -0.61,0.221 -0.195,0 -0.362,-0.045 -0.503,-0.139 -0.112,-0.072 -0.203,-0.17 -0.272,-0.291 -0.055,-0.092 -0.095,-0.188 -0.121,-0.285 -0.036,-0.129 -0.052,-0.285 -0.052,-0.465 0,-0.32 0.061,-0.578 0.182,-0.783 0.159,-0.264 0.415,-0.398 0.768,-0.398 0.371,0 0.635,0.146 0.792,0.439 0.102,0.191 0.154,0.436 0.154,0.729 -0.002,0.447 -0.115,0.769 -0.338,0.972 z m 0.638,-2.218 c -0.294,-0.34 -0.713,-0.51 -1.251,-0.51 -0.53,0 -0.941,0.156 -1.23,0.475 -0.287,0.32 -0.43,0.76 -0.43,1.314 0,0.475 0.116,0.865 0.35,1.178 0.29,0.383 0.73,0.576 1.317,0.576 0.564,0 0.99,-0.182 1.28,-0.541 0.25,-0.314 0.375,-0.723 0.375,-1.225 10e-4,-0.527 -0.135,-0.947 -0.411,-1.267 z"
   id="path23" />
								<path
   d="m 14.924,11.197 c -0.059,-0.205 -0.167,-0.59 -0.756,-0.59 -0.341,0 -0.844,0.23 -0.844,1.193 0,0.615 0.242,1.168 0.844,1.168 0.395,0 0.672,-0.225 0.756,-0.646 h 0.712 c -0.142,0.744 -0.626,1.26 -1.482,1.26 -0.906,0 -1.557,-0.611 -1.557,-1.789 0,-1.195 0.688,-1.799 1.566,-1.799 1.021,0 1.435,0.701 1.473,1.203 z"
   id="path25" />
								<path
   d="M 31.069,8.475 H 30.582 V 9.772 H 30.387 V 8.475 H 29.905 V 8.301 h 1.165 v 0.174 z"
   id="path27" />
								<path
   d="m 32.669,9.771 h -0.186 v -1.23 l -0.428,1.23 H 31.882 L 31.459,8.52 31.454,9.772 H 31.268 V 8.301 h 0.291 l 0.349,1.041 c 10e-4,0.004 0.014,0.043 0.039,0.121 0.016,0.049 0.023,0.084 0.028,0.098 L 32.057,9.325 32.41,8.302 h 0.259 z"
   id="path29" />
							</g>
							<g
   id="Shape_2_">
								<path
   fill="#ffffff"
   d="m 25.769,14.32 c 0,6.2 -5.023,11.221 -11.222,11.221 C 8.346,25.541 3.32,20.52 3.32,14.32 3.32,8.119 8.345,3.098 14.547,3.098 c 6.199,0 11.222,5.022 11.222,11.222 z"
   id="path32" />
								<path
   fill="#ed1c24"
   d="M 5.338,16.475 C 5.345,16.467 5.349,16.452 5.354,16.44 5.369,16.4 5.387,16.361 5.4,16.318 5.416,16.281 5.429,16.25 5.443,16.211 c 0.007,-0.02 0.014,-0.037 0.02,-0.051 0.209,-0.518 0.473,-1.053 0.794,-1.587 0.042,-0.095 0.086,-0.18 0.132,-0.27 l -1.352,0.006 0.329,-0.721 c 1.112,-0.305 2.966,-0.926 4.738,-2.638 l 0.049,-0.007 h 0.933 l -1.204,2.58 1.934,-0.005 -0.356,0.771 -1.93,0.008 c 0,0 -0.906,1.811 -1.214,3.108 -0.239,1.449 -0.005,2.527 1.292,2.932 0.801,0.246 1.799,0.189 2.875,-0.115 2.505,-0.783 5.181,-2.502 7.141,-4.781 C 22.85,11.694 22.915,7.86 19.766,6.886 17.749,6.255 14.903,6.955 12.27,8.523 15.555,6.405 19.162,5.41 21.655,6.188 22.119,6.331 22.526,6.532 22.87,6.781 20.815,4.516 17.838,3.089 14.538,3.089 8.327,3.089 3.291,8.122 3.291,14.334 c 0,2.289 0.686,4.423 1.866,6.203 -0.447,-1.099 -0.383,-2.51 0.181,-4.062 z"
   id="path34" />
								<path
   fill="#ed1c24"
   d="m 24.113,8.387 c 0.755,2.042 -0.185,5.093 -2.784,8.109 C 17.43,21.029 11.27,23.771 7.574,22.625 7.116,22.48 6.717,22.283 6.375,22.039 c 2.054,2.189 4.969,3.561 8.207,3.561 6.21,0 11.245,-5.035 11.245,-11.247 0,-2.192 -0.626,-4.239 -1.714,-5.966 z"
   id="path36" />
							</g>
						</g>
					</g>
				</g>
			</g>
		</g>
	</g>
</g>
<rect
   x="-5.2150002"
   fill="none"
   width="287.97501"
   height="28.969"
   id="rect47"
   y="-1.0889997" />

</svg>
